<svg xmlns="http://www.w3.org/2000/svg" viewBox="0 0 24.81 14.63"><defs><style>.cls-1{fill:#fff;}</style></defs><title>correo_blanco</title><g id="Capa_2" data-name="Capa 2"><g id="Capa_1-2" data-name="Capa 1"><path class="cls-1" d="M22.23,14.63H2.58A2.59,2.59,0,0,1,0,12V2.58A2.59,2.59,0,0,1,2.58,0H22.23a2.59,2.59,0,0,1,2.58,2.58V12A2.59,2.59,0,0,1,22.23,14.63ZM2.58,1A1.59,1.59,0,0,0,1,2.58V12a1.59,1.59,0,0,0,1.58,1.58H22.23A1.58,1.58,0,0,0,23.81,12V2.58A1.58,1.58,0,0,0,22.23,1Z"/><path class="cls-1" d="M12.4,8.73a1.8,1.8,0,0,1-1-.31L.73,1.17,1.29.35,12,7.59a.8.8,0,0,0,.9,0L23.52.35l.56.83L13.42,8.42A1.8,1.8,0,0,1,12.4,8.73Z"/><path class="cls-1" d="M1,14.37a.5.5,0,0,1-.31-.89L7.84,7.84a.5.5,0,1,1,.62.79L1.32,14.26A.5.5,0,0,1,1,14.37Z"/><path class="cls-1" d="M23.8,14.37a.49.49,0,0,1-.31-.11L16.25,8.63a.5.5,0,1,1,.61-.79l7.25,5.63a.5.5,0,0,1-.31.89Z"/></g></g></svg>