<svg xmlns="http://www.w3.org/2000/svg" viewBox="0 0 32 19.17"><defs><style>.cls-1{fill:#585857;}</style></defs><title>correo_gris</title><g id="Capa_2" data-name="Capa 2"><g id="Capa_1-2" data-name="Capa 1"><path class="cls-1" d="M28.92,19.17H3.08A3.09,3.09,0,0,1,0,16.09v-13A3.09,3.09,0,0,1,3.08,0H28.92A3.09,3.09,0,0,1,32,3.08v13A3.09,3.09,0,0,1,28.92,19.17ZM3.08,2A1.08,1.08,0,0,0,2,3.08v13a1.08,1.08,0,0,0,1.08,1.08H28.92A1.08,1.08,0,0,0,30,16.09v-13A1.08,1.08,0,0,0,28.92,2Z"/><path class="cls-1" d="M16,11.75a2.63,2.63,0,0,1-1.48-.46L1.08,2.15,2.2.5,15.64,9.63a.64.64,0,0,0,.72,0L29.8.5l1.12,1.65L17.48,11.29A2.63,2.63,0,0,1,16,11.75Z"/><path class="cls-1" d="M1.64,18.84A1,1,0,0,1,1,17.06L10,10a1,1,0,1,1,1.24,1.57l-9,7.1A1,1,0,0,1,1.64,18.84Z"/><path class="cls-1" d="M30.36,18.84a1,1,0,0,1-.61-.21l-9.13-7.1A1,1,0,0,1,21.85,10L31,17.05a1,1,0,0,1-.62,1.79Z"/></g></g></svg>