<svg xmlns="http://www.w3.org/2000/svg" viewBox="0 0 20 22.76"><defs><style>.cls-1{opacity:0.5;}.cls-2{fill:#680c36;}</style></defs><title>icono</title><g id="Capa_2" data-name="Capa 2"><g id="Capa_1-2" data-name="Capa 1"><g class="cls-1"><polygon class="cls-2" points="13.64 16.79 13.64 16.88 13.57 17.54 19.75 17.23 20 17.21 17.92 16.57 13.64 16.79"/><path class="cls-2" d="M9.89,22.49h0l-.05,0-.06,0h0l0,0h0l0,0h0l0,0,0,0h0l0,0,0,0,0,0,0,0,0,0,0,0L9.29,22a2.21,2.21,0,0,1-.21-.32,2.56,2.56,0,0,1-.3-1.08.28.28,0,0,1,0,0,2.86,2.86,0,0,1,0-.64,2.87,2.87,0,0,1,.5-1.18l0,0a2.67,2.67,0,0,1,.4-.44,2.46,2.46,0,0,1,.49-.33,2.2,2.2,0,0,1,.51-.19l.17,0,.42,0,.07-.76L8.83,17a2.24,2.24,0,0,0-.59.18,2.49,2.49,0,0,0-.53.34,2.69,2.69,0,0,0-.45.48,3,3,0,0,0-.33.58,2.94,2.94,0,0,0-.23,1.31,2.71,2.71,0,0,0,.12.65,2.35,2.35,0,0,0,.26.57,2.27,2.27,0,0,0,.4.47l.15.12h0l.15.1h0l.06,0,.06,0,0,0H8l.16.06h0l.06,0,.06,0-.06,0h0l1.25.39.82.25h0l-.06,0-.06,0,0,0h0l-.16-.08m-1.54-.43h0"/><path class="cls-2" d="M14.07,11.64h.08l2.57-.1a2.27,2.27,0,0,0,.59-.18,2.36,2.36,0,0,0,.53-.34,2.74,2.74,0,0,0,.45-.48,2.88,2.88,0,0,0,.33-.58,3,3,0,0,0,.19-.64,2.91,2.91,0,0,0,0-.67A2.73,2.73,0,0,0,18.73,8a2.43,2.43,0,0,0-.26-.57A2.14,2.14,0,0,0,18.08,7L18,6.9l-.08-.06h0l-.15-.1h0l-.06,0-.06,0,0,0h0l-.16-.06h0l-.12,0-.08,0-.11,0h0a2.39,2.39,0,0,0-.87.15l.06.08,0,0,0,0,.06.09h0l.05.09,0,0V7l.06.13v0l0,.07,0,.06v0l0,.15v0l0,.06,0,.08v0a1.49,1.49,0,0,1,0,.16v0c0,.05,0,.11,0,.17a2.79,2.79,0,0,1-.54,1.82,2.34,2.34,0,0,1-1.51,1l-.41,0h-.08l-2.07.08H12L8.44,11v.09l-.06.64v.09l3.54-.14H12Z"/><path class="cls-2" d="M12,.7l-.11,0h-.08A2.35,2.35,0,0,0,11,.82a2.39,2.39,0,0,1,.52,1.39A2.79,2.79,0,0,1,10.95,4,2.34,2.34,0,0,1,9.44,5L9,5V5.1L9,5.77v.09l2.57-.13a2.25,2.25,0,0,0,.59-.18,2.41,2.41,0,0,0,.53-.33,2.73,2.73,0,0,0,.45-.48,2.9,2.9,0,0,0,.33-.58,2.76,2.76,0,0,0,.19-.64,2.88,2.88,0,0,0,0-.67,2.64,2.64,0,0,0-.12-.64,2.42,2.42,0,0,0-.26-.57,2.29,2.29,0,0,0-.4-.47L12.73,1h0l-.15-.1h0l-.06,0-.06,0,0,0h0L12.2.76h0l-.06,0-.06,0L12,.7"/><path class="cls-2" d="M8.43,11.13V11l.51-5.18V5.77L9,5.1V5l.14-1.47a2.79,2.79,0,0,1,.54-1.82A2.41,2.41,0,0,1,11,.82a2.33,2.33,0,0,1,.82-.16h.08L12,.7l.08,0,.06,0h0L11.89.66,11.63.58,11.09.41,10.41.2,10.07.09h0l.12,0,0,0-.06,0L9.87,0,9.78,0H9.14A2.19,2.19,0,0,0,8.55.2,2.47,2.47,0,0,0,8,.54,2.74,2.74,0,0,0,7.57,1a2.93,2.93,0,0,0-.33.58A2.87,2.87,0,0,0,7,2.9L6.79,5.12l-.07.76V6l-.5,5.15-.07.73v.09L6,13.41a2.67,2.67,0,0,1-1.79,2.72h0l-.09,0,.06.08,0,0,0,0,0,0,0,0,0,0,0,0h0l0,0,0,0,0,0h0l0,0h0l0,0,.05,0,.05,0h0l.16.08h0l.06,0,.35.11H6a2.27,2.27,0,0,0,.59-.18,2.41,2.41,0,0,0,.53-.33,2.76,2.76,0,0,0,.45-.48,2.87,2.87,0,0,0,.33-.58,3,3,0,0,0,.19-.64,2.9,2.9,0,0,0,0-.66l.21-2.19h0v-.09Z"/><polygon class="cls-2" points="6.79 5.12 0 5.47 0 5.57 2.08 6.21 6.71 5.97 6.72 5.88 6.79 5.12"/><path class="cls-2" d="M4.7,16.68h0l-.05,0-.05,0,0,0h0l0,0h0l0,0,0,0,0,0h0l0,0,0,0,0,0,0,0,0,0,0,0-.06-.08a2.19,2.19,0,0,1-.21-.32,2.56,2.56,0,0,1-.3-1.08.26.26,0,0,1,0,0,2.91,2.91,0,0,1,0-.64,2.87,2.87,0,0,1,.18-.62,3,3,0,0,1,.32-.56l0,0a2.7,2.7,0,0,1,.4-.44A2.47,2.47,0,0,1,5,12.1a2.25,2.25,0,0,1,.51-.19l.17,0,.42,0,.07-.73-2.57.1a2.25,2.25,0,0,0-.59.18,2.33,2.33,0,0,0-.53.33,2.63,2.63,0,0,0-.45.48,2.86,2.86,0,0,0-.33.58,3,3,0,0,0-.19.64,2.81,2.81,0,0,0,0,.67,2.71,2.71,0,0,0,.12.65,2.35,2.35,0,0,0,.26.57,2.14,2.14,0,0,0,.4.47l.15.12h0l.15.1h0l.06,0,.06,0,0,0h0l.16.07H3l.12,0-.08,0,.14,0,.11,0,.19.06.14,0h0l.31.09.32.1.11,0,.11,0,.21.07.2.06.18.05H5l-.05,0-.07,0,0,0h0l-.15-.08"/><path class="cls-2" d="M16.21,6.19,15.63,6l-.38-.12h.07l.06,0,.06,0h0l-.35-.11-.09,0h-.64a2.24,2.24,0,0,0-.59.18,2.33,2.33,0,0,0-.53.33,2.71,2.71,0,0,0-.45.48,2.76,2.76,0,0,0-.33.58,2.88,2.88,0,0,0-.23,1.3L12,10.89h0l-.19,1.9-.4,4.11-.07.76v.09l-.14,1.47a2.67,2.67,0,0,1-1.79,2.72h0l-.09,0,.06.08,0,0,0,0,0,0,0,0,0,0,0,0h0l.05,0,0,0h.06l0,0h0l.05,0,.06,0h0l.16.08h0l.06,0,.35.11h.73a2.19,2.19,0,0,0,.59-.18,2.4,2.4,0,0,0,.53-.34,2.64,2.64,0,0,0,.45-.48,2.82,2.82,0,0,0,.33-.58,2.91,2.91,0,0,0,.19-.64,2.79,2.79,0,0,0,0-.66l.23-2.32.06-.67v-.09l.41-4.24.17-1.74.06-.67v0l.07-.77a2.79,2.79,0,0,1,.54-1.82,2.73,2.73,0,0,1,2.11-1h0l.11,0,.08,0,.08,0Z"/></g></g></g></svg>