<svg xmlns="http://www.w3.org/2000/svg" viewBox="0 0 32 27.75"><defs><style>.cls-1{fill:#585857;}</style></defs><title>imprimir_gris</title><g id="Capa_2" data-name="Capa 2"><g id="Capa_1-2" data-name="Capa 1"><path class="cls-1" d="M27.75,23.51H25.26v-2h2.48A2.26,2.26,0,0,0,30,19.25V13a2.26,2.26,0,0,0-2.25-2.25H4.25A2.26,2.26,0,0,0,2,13v6.29a2.26,2.26,0,0,0,2.25,2.25H7.07v2H4.25A4.26,4.26,0,0,1,0,19.25V13A4.26,4.26,0,0,1,4.25,8.71H27.75A4.26,4.26,0,0,1,32,13v6.29A4.26,4.26,0,0,1,27.75,23.51Z"/><path class="cls-1" d="M24.94,9.71h-2V3.25c0-.7-.38-1.25-.71-1.25H9.77c-.33,0-.71.55-.71,1.25V9.71h-2V3.25A3,3,0,0,1,9.77,0H22.23a3,3,0,0,1,2.71,3.25Z"/><path class="cls-1" d="M24,27.75H8.35a2.28,2.28,0,0,1-2.28-2.28V19.93a2.28,2.28,0,0,1,2.28-2.28H24a2.28,2.28,0,0,1,2.28,2.28v5.54A2.28,2.28,0,0,1,24,27.75ZM8.35,19.65a.28.28,0,0,0-.28.28v5.54a.28.28,0,0,0,.28.28H24a.28.28,0,0,0,.28-.28V19.93a.28.28,0,0,0-.28-.28Z"/><rect class="cls-1" x="4.37" y="13.08" width="4.84" height="2"/><rect class="cls-1" x="10.86" y="2.98" width="10.28" height="2"/><rect class="cls-1" x="10.86" y="5.99" width="10.08" height="2"/></g></g></svg>