<svg xmlns="http://www.w3.org/2000/svg" viewBox="0 0 195.62 34.11"><defs><style>.cls-1{fill:#680c36;}.cls-2{fill:#666;}</style></defs><title>logo</title><g id="Capa_2" data-name="Capa 2"><g id="Capa_1-2" data-name="Capa 1"><polygon class="cls-1" points="97.74 13.87 97.73 13.95 97.68 14.5 102.78 14.23 102.99 14.22 101.27 13.69 97.74 13.87"/><path class="cls-1" d="M94.64,18.59h0l0,0,0,0h-.09l0,0,0,0h0l0,0,0,0,0,0,0,0,0,0,0,0-.05-.06a1.83,1.83,0,0,1-.17-.26,2.12,2.12,0,0,1-.25-.9.23.23,0,0,1,0,0,2.36,2.36,0,0,1,0-.53,2.37,2.37,0,0,1,.41-1l0,0a2.21,2.21,0,0,1,.33-.36,2,2,0,0,1,.4-.27,1.81,1.81,0,0,1,.42-.16l.14,0,.35,0,.06-.63-2.13.11a1.85,1.85,0,0,0-.49.15,2.06,2.06,0,0,0-.44.28,2.22,2.22,0,0,0-.37.4,2.47,2.47,0,0,0-.27.48A2.43,2.43,0,0,0,92,16.46a2.24,2.24,0,0,0,.1.53,1.94,1.94,0,0,0,.22.47,1.87,1.87,0,0,0,.33.39l.12.1h0l.13.08h0l0,0,.05,0,0,0h0l.13.05h.06l1,.32.67.21h0l-.05,0-.05,0h-.05l-.13-.07m-1.27-.36h0"/><polygon class="cls-2" points="1.31 9.63 5.04 9.63 5.04 6.25 6.35 6.25 6.35 14.91 5.04 14.91 5.04 10.86 1.31 10.86 1.31 14.91 0 14.91 0 6.25 1.31 6.25 1.31 9.63"/><path class="cls-2" d="M21,12.8H17.31l-1,2.1H14.94L19.22,5.7l4.13,9.21H21.93Zm-.53-1.23L19.2,8.63l-1.35,2.94Z"/><path class="cls-2" d="M34.87,11.22l2.68,3.69H36l-2.47-3.54h-.24v3.54H31.94V6.25h1.53a3.82,3.82,0,0,1,2.48.64,2.37,2.37,0,0,1,.84,1.9,2.47,2.47,0,0,1-.53,1.58,2.36,2.36,0,0,1-1.39.85m-1.63-1h.41q1.86,0,1.86-1.42T33.71,7.47h-.47Z"/><polygon class="cls-2" points="47.55 9.7 50.92 6.24 52.66 6.24 48.75 10.16 52.69 14.9 50.94 14.9 47.82 11.05 47.55 11.32 47.55 14.9 46.24 14.9 46.24 6.24 47.55 6.24 47.55 9.7"/><polygon class="cls-2" points="66.09 7.47 62.62 7.47 62.62 9.55 65.99 9.55 65.99 10.78 62.62 10.78 62.62 13.68 66.09 13.68 66.09 14.91 61.31 14.91 61.31 6.25 66.09 6.25 66.09 7.47"/><path class="cls-2" d="M78.24,11.22l2.68,3.69h-1.6l-2.47-3.54h-.24v3.54H75.3V6.25h1.53a3.82,3.82,0,0,1,2.48.64,2.37,2.37,0,0,1,.84,1.9,2.46,2.46,0,0,1-.53,1.58,2.36,2.36,0,0,1-1.39.85m-1.63-1H77q1.86,0,1.86-1.42T77.08,7.47h-.47Z"/><polygon class="cls-2" points="110.3 6.25 110.3 13.68 112.85 13.68 112.85 14.91 108.99 14.91 108.99 6.25 110.3 6.25"/><polygon class="cls-2" points="121.66 6.25 121.66 13.68 124.21 13.68 124.21 14.91 120.36 14.91 120.36 6.25 121.66 6.25"/><path class="cls-2" d="M131,10.54a4.24,4.24,0,0,1,1.34-3.14,4.41,4.41,0,0,1,3.21-1.31,4.34,4.34,0,0,1,3.17,1.32A4.33,4.33,0,0,1,140,10.59a4.25,4.25,0,0,1-1.33,3.17,4.58,4.58,0,0,1-6.25.15A4.25,4.25,0,0,1,131,10.54m1.32,0a3.21,3.21,0,0,0,5.48,2.34,3.19,3.19,0,0,0,.94-2.32,3.17,3.17,0,0,0-.92-2.32,3.23,3.23,0,0,0-4.56,0,3.12,3.12,0,0,0-.93,2.3"/><path class="cls-2" d="M150.9,11.22l2.68,3.69H152l-2.47-3.54h-.24v3.54H148V6.25h1.53a3.82,3.82,0,0,1,2.48.64,2.37,2.37,0,0,1,.84,1.9,2.47,2.47,0,0,1-.53,1.58,2.36,2.36,0,0,1-1.39.85m-1.63-1h.42q1.86,0,1.86-1.42t-1.81-1.33h-.47Z"/><polygon class="cls-2" points="165.91 7.47 162.44 7.47 162.44 9.55 165.81 9.55 165.81 10.78 162.44 10.78 162.44 13.68 165.91 13.68 165.91 14.91 161.13 14.91 161.13 6.25 165.91 6.25 165.91 7.47"/><path class="cls-2" d="M174,14.9V6.24h1.82a6.64,6.64,0,0,1,2.06.26,3.9,3.9,0,0,1,1.48.86,4.14,4.14,0,0,1,1.34,3.21,4.22,4.22,0,0,1-2.87,4.09,6.72,6.72,0,0,1-2,.24Zm1.31-1.23h.59a5,5,0,0,0,1.46-.18,3,3,0,0,0,2-2.92,3,3,0,0,0-1-2.31,3.6,3.6,0,0,0-2.53-.79h-.59Z"/><path class="cls-2" d="M193.29,12.8h-3.71l-1,2.1h-1.41l4.28-9.21,4.13,9.21h-1.43Zm-.53-1.23-1.28-2.94-1.35,2.94Z"/><path class="cls-1" d="M98.09,9.62h.07l2.13-.08a1.88,1.88,0,0,0,.48-.15,2,2,0,0,0,.44-.28,2.27,2.27,0,0,0,.37-.39,2.38,2.38,0,0,0,.28-.48A2.52,2.52,0,0,0,102,7.7a2.4,2.4,0,0,0,0-.55,2.26,2.26,0,0,0-.1-.53,2,2,0,0,0-.22-.47,1.76,1.76,0,0,0-.33-.39l-.06-.05-.06,0h0l-.13-.08h0l-.05,0,0,0h0l-.13-.05h0l-.1,0-.06,0-.09,0h0a2,2,0,0,0-.72.13l.05.06,0,0,0,0,0,.07h0l0,.07,0,0v0l.05.11v0l0,.06,0,0v0l0,.12v.16a1.23,1.23,0,0,1,0,.13v0s0,.09,0,.14a2.31,2.31,0,0,1-.45,1.51,1.94,1.94,0,0,1-1.25.79h-.41L96.44,9h-.07l-2.94.11V9.2l-.05.53V9.8l2.93-.11h.07Z"/><path class="cls-1" d="M96.36.57l-.09,0H96.2a2,2,0,0,0-.68.13A2,2,0,0,1,96,1.82a2.31,2.31,0,0,1-.45,1.51,1.93,1.93,0,0,1-1.25.79l-.34,0v.07l-.05.55v.08L96,4.73a1.86,1.86,0,0,0,.49-.15,2,2,0,0,0,.44-.28,2.26,2.26,0,0,0,.37-.39,2.4,2.4,0,0,0,.27-.48,2.28,2.28,0,0,0,.16-.53,2.38,2.38,0,0,0,0-.55,2.18,2.18,0,0,0-.1-.53,2,2,0,0,0-.22-.47A1.9,1.9,0,0,0,97.1,1L97,.86h0L96.84.77h0l-.05,0-.05,0,0,0h0L96.55.63h-.12l-.06,0"/><path class="cls-1" d="M93.43,9.2V9.12l.42-4.28V4.76l.05-.55V4.14L94,2.93a2.31,2.31,0,0,1,.45-1.51,2,2,0,0,1,1-.74,1.92,1.92,0,0,1,.68-.13h.06l.09,0,.06,0h.06l-.2-.06L96.08.48,95.63.34,95.07.17,94.79.08h0l.1,0h0l0,0L94.62,0H94a1.81,1.81,0,0,0-.48.15,2,2,0,0,0-.44.28,2.26,2.26,0,0,0-.37.39,2.42,2.42,0,0,0-.27.48,2.38,2.38,0,0,0-.19,1.07l-.18,1.84L92,4.86v.07l-.42,4.26-.06.6v.07l-.12,1.21a2.21,2.21,0,0,1-1.48,2.25h0l-.08,0,.05.06,0,0,0,0,0,0,0,0,0,0,0,0h0l0,0,0,0,0,0h0l0,0h0l0,0,0,0,0,0h0l.13.07h0l0,0,.29.09h.6a1.88,1.88,0,0,0,.49-.15,2,2,0,0,0,.44-.28,2.28,2.28,0,0,0,.37-.4,2.37,2.37,0,0,0,.27-.48,2.46,2.46,0,0,0,.16-.53,2.4,2.4,0,0,0,0-.55l.18-1.81h0V9.73Z"/><polygon class="cls-1" points="92.08 4.24 86.46 4.52 86.46 4.6 88.18 5.13 92.01 4.93 92.01 4.86 92.08 4.24"/><path class="cls-1" d="M90.34,13.79h0l0,0,0,0,0,0h0l0,0h0l0,0,0,0,0,0h0l0,0,0,0,0,0,0,0,0,0,0,0-.05-.06a1.81,1.81,0,0,1-.17-.26,2.11,2.11,0,0,1-.25-.9.21.21,0,0,1,0,0,2.4,2.4,0,0,1,0-.53,2.37,2.37,0,0,1,.15-.51,2.45,2.45,0,0,1,.26-.46l0,0a2.23,2.23,0,0,1,.33-.36,2,2,0,0,1,.4-.27A1.86,1.86,0,0,1,91,9.84l.14,0h.35l.06-.6-2.13.08a1.86,1.86,0,0,0-.49.15,1.93,1.93,0,0,0-.44.28,2.17,2.17,0,0,0-.37.39,2.36,2.36,0,0,0-.28.48,2.49,2.49,0,0,0-.16.53,2.32,2.32,0,0,0,0,.55,2.24,2.24,0,0,0,.1.53,2,2,0,0,0,.22.47,1.77,1.77,0,0,0,.33.39l.12.1h0l.13.08h0l.05,0,0,0h.05l.13.05h0l.1,0-.06,0,.12,0,.09,0,.16,0,.12,0h0l.25.08.27.08.09,0,.09,0,.18.05.17.05.14,0h0l0,0-.06,0h-.05l-.13-.07"/><path class="cls-1" d="M99.86,5.12,99.38,5l-.31-.1h.06l0,0,.05,0h0l-.29-.09h-.6a1.85,1.85,0,0,0-.49.15,1.93,1.93,0,0,0-.44.28,2.24,2.24,0,0,0-.37.4,2.28,2.28,0,0,0-.27.48,2.38,2.38,0,0,0-.19,1.08L96.37,9h0l-.15,1.57L95.89,14l-.06.63v.07l-.12,1.21a2.21,2.21,0,0,1-1.48,2.25h0l-.08,0,.05.06,0,0,0,0,0,0,0,0,0,0,0,0h0l0,0,0,0h.09l0,0,0,0h0l.13.07h0l0,0,.29.09h.6a1.81,1.81,0,0,0,.48-.15,2,2,0,0,0,.44-.28A2.18,2.18,0,0,0,97,18a2.33,2.33,0,0,0,.27-.48,2.39,2.39,0,0,0,.16-.53,2.3,2.3,0,0,0,0-.55l.19-1.91.05-.55v-.07l.34-3.5.14-1.44.05-.55v0l.06-.64a2.31,2.31,0,0,1,.45-1.51,2.25,2.25,0,0,1,1.75-.87h0l.09,0,.06,0,.06,0Z"/><path class="cls-2" d="M6.48,31.3a5.37,5.37,0,0,1-2.13.39A3.11,3.11,0,0,1,1,28.3a5.14,5.14,0,0,1,1.74-4,4.69,4.69,0,0,1,3.1-1.09,3.5,3.5,0,0,1,1.78.39l-.33.82a3.37,3.37,0,0,0-1.62-.34A3.51,3.51,0,0,0,3.35,25,4.35,4.35,0,0,0,2.1,28.15c0,1.46.67,2.68,2.49,2.68a4.14,4.14,0,0,0,1.75-.35Z"/><path class="cls-2" d="M8.73,31.57l1.13-5.89h1L9.74,31.57Zm1.89-6.89A.57.57,0,0,1,10,24a.68.68,0,0,1,.67-.68.59.59,0,0,1,.6.63.67.67,0,0,1-.68.68Z"/><path class="cls-2" d="M12.73,31.57l.72-3.8c.15-.77.23-1.54.3-2.09h.89c0,.41-.1.83-.17,1.28h0a2.14,2.14,0,0,1,1.8-1.41l.29,0-.19,1a1.53,1.53,0,0,0-.28,0c-.86,0-1.64,1.06-1.9,2.42l-.49,2.6Z"/><path class="cls-2" d="M23.56,25.68l-.8,4.17q-.18,1-.26,1.72h-.91l.16-1.11h0a2.64,2.64,0,0,1-2.08,1.24c-.75,0-1.56-.37-1.56-1.7a5.53,5.53,0,0,1,.11-1l.64-3.32h1L19.21,29a4.78,4.78,0,0,0-.1.86c0,.61.24,1,.94,1A2.44,2.44,0,0,0,22,28.7l.57-3Z"/><path class="cls-2" d="M25.43,32.91A3,3,0,0,0,27,33.3c1,0,1.78-.5,2.12-2.09l.19-.89h0a2.38,2.38,0,0,1-2,1.25,1.86,1.86,0,0,1-1.8-2,3.84,3.84,0,0,1,3.74-4,4.84,4.84,0,0,1,1.9.41l-.91,4.87A4.42,4.42,0,0,1,29,33.47a3.2,3.2,0,0,1-2.06.64,3.46,3.46,0,0,1-1.76-.41ZM30,26.56a2.33,2.33,0,0,0-1-.21c-1.47,0-2.49,1.54-2.49,3,0,.66.23,1.41,1.13,1.41s1.74-1.1,2-2.25Z"/><path class="cls-2" d="M33,31.57l1.12-5.89h1L34,31.57Zm3.59-8.35L34.93,25h-.79l1.19-1.74Z"/><path class="cls-2" d="M40.87,31.57A15.08,15.08,0,0,1,41,30h0a2.57,2.57,0,0,1-2.29,1.65A1.74,1.74,0,0,1,37,29.76a4.1,4.1,0,0,1,4.08-4.21,6,6,0,0,1,1.58.22L42,28.84a13.36,13.36,0,0,0-.24,2.73Zm.66-5.13a2.3,2.3,0,0,0-.71-.08A3.12,3.12,0,0,0,38,29.57c0,.66.23,1.3,1,1.3s1.84-1.1,2.13-2.66Z"/><path class="cls-2" d="M49.54,23.48a8.93,8.93,0,0,1,1.78-.17,2.94,2.94,0,0,1,2,.63,1.87,1.87,0,0,1,.6,1.47,2.8,2.8,0,0,1-1,2.13,3.89,3.89,0,0,1-2.48.79,5.84,5.84,0,0,1-.84-.06L49,31.57H48Zm.23,3.94a3.65,3.65,0,0,0,.81.07,2.08,2.08,0,0,0,2.31-2c0-1-.69-1.36-1.63-1.36a3.72,3.72,0,0,0-.89.08Z"/><path class="cls-2" d="M55.29,31.57l1.64-8.64h1L56.3,31.57Z"/><path class="cls-2" d="M63.19,31.57A15.2,15.2,0,0,1,63.32,30h0A2.57,2.57,0,0,1,61,31.7a1.74,1.74,0,0,1-1.69-1.95,4.1,4.1,0,0,1,4.08-4.21,6,6,0,0,1,1.58.22l-.61,3.08a13.34,13.34,0,0,0-.24,2.73Zm.66-5.13a2.3,2.3,0,0,0-.7-.08,3.12,3.12,0,0,0-2.77,3.22c0,.66.23,1.3,1,1.3s1.84-1.1,2.13-2.66ZM65,23.22,63.35,25h-.79l1.19-1.74Z"/><path class="cls-2" d="M66.91,30.55a2.59,2.59,0,0,0,1.27.37,1,1,0,0,0,1.12-1c0-.46-.21-.74-.83-1.08a1.76,1.76,0,0,1-1.06-1.5,1.94,1.94,0,0,1,2.14-1.83,2.44,2.44,0,0,1,1.22.29l-.28.77a2.06,2.06,0,0,0-1-.27,1,1,0,0,0-1.06.89c0,.43.28.69.81,1a1.84,1.84,0,0,1,1.09,1.55,2,2,0,0,1-2.25,1.93,2.68,2.68,0,0,1-1.46-.4Z"/><path class="cls-2" d="M75.21,24.27l-.27,1.41h1.41l-.16.79H74.78l-.54,2.86a4.36,4.36,0,0,0-.12.94.5.5,0,0,0,.56.57,1.81,1.81,0,0,0,.47,0l0,.79a2.34,2.34,0,0,1-.78.11,1.09,1.09,0,0,1-1.24-1.14,5.47,5.47,0,0,1,.13-1.09l.57-3H73l.15-.79h.84l.21-1.08Z"/><path class="cls-2" d="M77.63,31.57l1.13-5.89h1l-1.12,5.89Zm1.89-6.89a.57.57,0,0,1-.57-.63.68.68,0,0,1,.67-.68.59.59,0,0,1,.6.63.67.67,0,0,1-.68.68Z"/><path class="cls-2" d="M85.68,31.32a3.87,3.87,0,0,1-1.7.36,2.11,2.11,0,0,1-2.26-2.27,3.74,3.74,0,0,1,3.6-3.87,2.78,2.78,0,0,1,1.23.27l-.29.79a2.29,2.29,0,0,0-1-.22,2.74,2.74,0,0,0-2.49,2.9,1.39,1.39,0,0,0,1.46,1.58,3.06,3.06,0,0,0,1.36-.33Z"/><path class="cls-2" d="M91.71,31.57A15.08,15.08,0,0,1,91.85,30h0a2.57,2.57,0,0,1-2.29,1.65,1.74,1.74,0,0,1-1.69-1.95,4.1,4.1,0,0,1,4.08-4.21,6,6,0,0,1,1.58.22l-.61,3.08a13.36,13.36,0,0,0-.24,2.73Zm.66-5.13a2.3,2.3,0,0,0-.71-.08,3.12,3.12,0,0,0-2.77,3.22c0,.66.23,1.3,1,1.3s1.84-1.1,2.13-2.66Z"/><path class="cls-2" d="M99.74,29.16a.67.67,0,0,1-.67-.72.78.78,0,0,1,.77-.82.68.68,0,0,1,.68.73.76.76,0,0,1-.77.8Z"/><path class="cls-2" d="M110.76,27.71h-3l-.56,3h3.36l-.17.86H106l1.56-8.2h4.19l-.17.86h-3.16l-.5,2.63h3Z"/><path class="cls-2" d="M113,30.55a2.59,2.59,0,0,0,1.27.37,1,1,0,0,0,1.12-1c0-.46-.21-.74-.83-1.08a1.76,1.76,0,0,1-1.06-1.5,1.94,1.94,0,0,1,2.14-1.83,2.44,2.44,0,0,1,1.22.29l-.28.77a2.06,2.06,0,0,0-1-.27,1,1,0,0,0-1.06.89c0,.43.28.69.81,1a1.84,1.84,0,0,1,1.09,1.55,2,2,0,0,1-2.25,1.93,2.68,2.68,0,0,1-1.46-.4Z"/><path class="cls-2" d="M121.3,24.27,121,25.68h1.41l-.16.79h-1.41l-.54,2.86a4.33,4.33,0,0,0-.12.94.5.5,0,0,0,.56.57,1.81,1.81,0,0,0,.47,0l0,.79a2.35,2.35,0,0,1-.78.11,1.09,1.09,0,0,1-1.24-1.14,5.47,5.47,0,0,1,.13-1.09l.57-3H119l.15-.79H120l.21-1.08Z"/><path class="cls-2" d="M127.91,31.23a4.21,4.21,0,0,1-1.95.46,2.12,2.12,0,0,1-2.24-2.36c0-1.78,1.31-3.78,3.21-3.78a1.53,1.53,0,0,1,1.73,1.52c0,1.54-1.74,1.95-3.92,1.91a2.38,2.38,0,0,0,.12,1.11,1.32,1.32,0,0,0,1.31.79,3.3,3.3,0,0,0,1.58-.4Zm-.22-4.15c0-.47-.37-.74-.9-.74-1,0-1.68.94-1.92,1.86,1.58,0,2.82-.19,2.82-1.11Zm1.11-3.86L127.18,25h-.79l1.19-1.74Z"/><path class="cls-2" d="M133,24.27l-.27,1.41h1.41l-.16.79h-1.41L132,29.33a4.36,4.36,0,0,0-.12.94.5.5,0,0,0,.56.57,1.81,1.81,0,0,0,.47,0l0,.79a2.34,2.34,0,0,1-.78.11,1.1,1.1,0,0,1-1.24-1.14,5.44,5.44,0,0,1,.13-1.09l.57-3h-.84l.15-.79h.84l.21-1.08Z"/><path class="cls-2" d="M135.42,31.57l1.13-5.89h1l-1.12,5.89Zm1.89-6.89a.57.57,0,0,1-.57-.63.68.68,0,0,1,.67-.68.59.59,0,0,1,.6.63.67.67,0,0,1-.68.68Z"/><path class="cls-2" d="M143.47,31.32a3.86,3.86,0,0,1-1.7.36,2.11,2.11,0,0,1-2.26-2.27,3.74,3.74,0,0,1,3.6-3.87,2.78,2.78,0,0,1,1.23.27l-.29.79a2.29,2.29,0,0,0-1-.22,2.74,2.74,0,0,0-2.49,2.9A1.39,1.39,0,0,0,142,30.86a3.06,3.06,0,0,0,1.36-.33Z"/><path class="cls-2" d="M149.51,31.57a15.11,15.11,0,0,1,.13-1.52h0a2.57,2.57,0,0,1-2.29,1.65,1.74,1.74,0,0,1-1.69-1.95,4.1,4.1,0,0,1,4.08-4.21,6,6,0,0,1,1.58.22l-.61,3.08a13.32,13.32,0,0,0-.24,2.73Zm.66-5.13a2.31,2.31,0,0,0-.71-.08,3.12,3.12,0,0,0-2.77,3.22c0,.66.23,1.3,1,1.3s1.84-1.1,2.13-2.66Z"/><path class="cls-2" d="M157.53,29.16a.67.67,0,0,1-.67-.72.78.78,0,0,1,.77-.82.68.68,0,0,1,.68.73.76.76,0,0,1-.77.8Z"/><path class="cls-2" d="M165.4,23.37h1L165,30.69h3.31l-.17.88h-4.31Z"/><path class="cls-2" d="M174.27,31.57a15.05,15.05,0,0,1,.13-1.52h0a2.57,2.57,0,0,1-2.29,1.65,1.74,1.74,0,0,1-1.69-1.95,4.1,4.1,0,0,1,4.08-4.21,6,6,0,0,1,1.58.22l-.61,3.08a13.39,13.39,0,0,0-.24,2.73Zm.66-5.13a2.3,2.3,0,0,0-.71-.08,3.12,3.12,0,0,0-2.77,3.22c0,.66.23,1.3,1,1.3s1.84-1.1,2.13-2.66ZM176,23.22,174.43,25h-.79l1.19-1.74Z"/><path class="cls-2" d="M178,30.55a2.59,2.59,0,0,0,1.27.37,1,1,0,0,0,1.12-1c0-.46-.21-.74-.83-1.08a1.76,1.76,0,0,1-1.06-1.5,1.94,1.94,0,0,1,2.14-1.83,2.44,2.44,0,0,1,1.22.29l-.28.77a2.06,2.06,0,0,0-1-.27,1,1,0,0,0-1.06.89c0,.43.28.69.81,1a1.84,1.84,0,0,1,1.09,1.55,2,2,0,0,1-2.25,1.93,2.68,2.68,0,0,1-1.46-.4Z"/><path class="cls-2" d="M187.93,31.23a4.2,4.2,0,0,1-1.95.46,2.12,2.12,0,0,1-2.24-2.36c0-1.78,1.31-3.78,3.21-3.78a1.53,1.53,0,0,1,1.73,1.52c0,1.54-1.74,1.95-3.92,1.91a2.37,2.37,0,0,0,.12,1.11,1.32,1.32,0,0,0,1.31.79,3.3,3.3,0,0,0,1.58-.4Zm-.22-4.15c0-.47-.37-.74-.9-.74-1,0-1.68.94-1.92,1.86,1.58,0,2.82-.19,2.82-1.11Z"/><path class="cls-2" d="M190.41,31.57l.72-3.8c.15-.77.23-1.54.3-2.09h.89c0,.41-.1.83-.17,1.28h0a2.14,2.14,0,0,1,1.8-1.41l.29,0-.19,1a1.53,1.53,0,0,0-.28,0c-.86,0-1.64,1.06-1.9,2.42l-.49,2.6Z"/></g></g></svg>